# xmcd CD database file
#
# Track frame offsets:
#	150
#	31002
#	58137
#	80580
#	98860
#	136580
#	149420
#	171387
#	194275
#	232175
#
# Disc length: 3342 seconds
#
# Revision: 0
# Processed by: cddbd v1.4PL0 Copyright (c) Steve Scherf et al.
# Submitted via: CDex 1.50beta10
#
DISCID=890d0c0a
DTITLE=Brown/Marich/Schilling - Waltz for Bill
DYEAR=1900
DGENRE=Jazz
TTITLE0=Speak No Evil
TTITLE1=Waltz for Bill
TTITLE2=Billie's Bounce
TTITLE3=Anthropology
TTITLE4=But Beautiful
TTITLE5=Groovin' High
TTITLE6=Red Clay
TTITLE7=Ramblin'
TTITLE8=Lisa's Song
TTITLE9=You Don't Know What Love Is
EXTD=
EXTT0=
EXTT1=
EXTT2=
EXTT3=
EXTT4=
EXTT5=
EXTT6=
EXTT7=
EXTT8=
EXTT9=
PLAYORDER=
